<?xml version="1.0" standalone="no"?>
<!DOCTYPE svg PUBLIC "-//W3C//DTD SVG 20010904//EN"
 "http://www.w3.org/TR/2001/REC-SVG-20010904/DTD/svg10.dtd">
<svg version="1.0" xmlns="http://www.w3.org/2000/svg"
 width="900.000000pt" height="886.000000pt" viewBox="0 0 900.000000 886.000000"
 preserveAspectRatio="xMidYMid meet">

<g transform="translate(0.000000,886.000000) scale(0.100000,-0.100000)"
fill="#000000" stroke="none">
<path d="M4980 8455 c8 -10 11 -52 8 -140 l-3 -125 81 0 c88 0 94 4 94 58 l0
26 -27 -31 c-16 -17 -40 -33 -55 -36 l-28 -4 0 121 c0 82 4 126 12 134 9 9 0
12 -41 12 -46 0 -52 -2 -41 -15z"/>
<path d="M4408 8433 c-25 -4 -41 -23 -19 -23 5 0 11 -18 15 -40 4 -24 14 -45
26 -52 15 -10 17 -15 7 -26 -6 -8 -14 -44 -17 -79 l-6 -65 71 7 c78 7 112 24
121 59 10 43 0 70 -31 86 -29 15 -30 17 -16 41 8 15 11 36 8 50 -11 42 -65 56
-159 42z m90 -25 c18 -18 15 -77 -3 -85 -22 -8 -27 0 -32 52 -6 47 8 60 35 33z
m36 -130 c23 -33 20 -74 -6 -92 -36 -26 -45 -19 -51 37 -7 74 24 103 57 55z"/>
<path d="M5615 8430 c-70 -29 -104 -123 -69 -195 44 -93 182 -103 243 -16 44
62 18 171 -48 206 -32 16 -93 19 -126 5z m115 -43 c30 -49 33 -92 11 -141 -10
-24 -31 -52 -45 -61 -24 -16 -28 -16 -52 0 -71 46 -70 167 1 223 32 25 62 18
85 -21z"/>
<path d="M6223 8300 c-42 -25 -63 -68 -63 -125 0 -84 52 -137 135 -137 69 0
82 8 94 57 6 24 11 46 11 49 0 5 -30 14 -102 32 -18 4 -28 2 -28 -5 0 -6 10
-11 23 -11 43 0 52 -14 38 -59 -15 -51 -55 -60 -96 -20 -27 26 -25 110 4 166
38 75 79 78 116 9 23 -42 28 -44 43 -12 9 19 7 27 -6 39 -49 42 -117 49 -169
17z"/>
<path d="M3465 8228 c-31 -17 -45 -39 -45 -74 0 -43 34 -69 108 -85 92 -18
112 -38 76 -73 -21 -22 -62 -20 -107 4 -40 22 -43 19 -26 -28 10 -31 13 -32
52 -26 78 12 117 42 117 90 0 41 -30 71 -85 84 -22 6 -53 14 -69 18 -41 10
-57 39 -32 58 25 18 54 18 90 -1 34 -18 41 -14 32 20 -6 22 -12 25 -49 25 -23
0 -51 -6 -62 -12z"/>
<path d="M3004 8035 c-7 -18 3 -35 22 -35 8 0 14 -5 14 -12 0 -9 3 -9 11 -1
18 18 2 63 -22 63 -11 0 -22 -7 -25 -15z"/>
<path d="M6830 7905 c-6 -14 -10 -28 -10 -29 0 -2 60 -47 134 -101 788 -570
1349 -1389 1584 -2310 126 -492 159 -1013 96 -1515 -157 -1256 -895 -2370
-1998 -3019 -271 -160 -629 -311 -948 -401 -1053 -298 -2210 -157 -3148 385
-1114 642 -1868 1778 -2025 3050 -38 301 -32 867 10 1062 4 16 -2 23 -24 31
l-28 10 -7 -56 c-37 -311 -47 -641 -26 -887 100 -1156 650 -2187 1557 -2914
497 -398 1120 -691 1737 -816 307 -62 499 -80 846 -80 322 0 440 9 690 51
1176 199 2227 916 2860 1949 70 114 194 359 259 513 154 360 253 728 302 1117
30 237 37 658 15 885 -74 777 -361 1520 -823 2127 -262 346 -598 668 -941 904
l-102 70 -10 -26z"/>
<path d="M2595 7843 c-17 -10 -25 -18 -17 -21 7 -2 24 -26 37 -52 27 -52 26
-54 -30 -83 l-31 -15 -28 49 c-15 27 -24 54 -21 59 9 15 -8 12 -35 -7 -36 -24
-36 -23 -23 -31 14 -9 113 -179 122 -209 l6 -22 33 21 c27 17 31 23 19 30 -9
4 -27 28 -40 53 -27 48 -26 50 30 79 l31 16 26 -44 c14 -25 26 -52 26 -60 0
-19 2 -19 35 -4 24 11 34 28 17 28 -9 0 -113 181 -122 211 -5 16 -7 16 -35 2z"/>
<path d="M2055 7508 c-76 -41 -96 -100 -48 -138 24 -19 38 -21 112 -18 71 3
85 0 95 -14 26 -41 -41 -86 -105 -70 -34 9 -37 8 -29 -7 25 -44 26 -44 61 -26
84 43 112 102 68 146 -20 20 -29 21 -106 16 -65 -4 -87 -2 -98 10 -20 19 -19
29 6 54 17 17 30 20 65 16 48 -5 49 -5 34 24 -12 21 -26 23 -55 7z"/>
<path d="M1570 7096 c0 -1 5 -16 10 -32 7 -21 23 -34 56 -48 l45 -18 -22 -24
c-17 -19 -25 -21 -32 -12 -6 9 -7 7 -3 -5 3 -10 6 -21 6 -23 0 -2 13 10 28 27
l28 31 41 -21 c23 -11 45 -26 48 -32 5 -7 16 -2 32 12 l24 23 -123 63 c-116
58 -138 68 -138 59z"/>
<path d="M4758 6990 c-20 -11 -45 -34 -56 -52 -35 -59 -35 -85 4 -193 20 -55
38 -108 41 -117 4 -15 -5 -14 -89 7 -521 131 -1159 8 -1662 -321 -135 -89
-222 -162 -336 -280 -357 -374 -522 -872 -414 -1254 24 -83 230 -633 260 -693
125 -245 372 -445 706 -568 172 -63 345 -84 564 -69 464 32 1270 80 1336 80
368 0 702 -181 789 -427 27 -77 30 -199 6 -270 -38 -109 -155 -254 -280 -344
-40 -29 -76 -58 -82 -65 -17 -20 -184 -127 -293 -188 -262 -147 -568 -247
-895 -292 -134 -19 -462 -14 -567 9 -220 48 -350 107 -462 206 -88 79 -124
139 -193 320 -34 92 -69 178 -76 190 -20 33 -81 61 -132 61 -79 0 -157 -75
-157 -151 0 -25 78 -248 225 -646 124 -334 234 -624 244 -643 39 -74 153 -104
221 -57 48 32 72 69 77 118 5 42 -11 92 -114 365 -2 6 44 -3 104 -21 424 -128
879 -106 1403 68 206 68 475 196 660 313 58 36 121 75 140 86 113 64 258 200
400 376 111 138 171 230 233 355 125 251 156 485 93 707 -41 148 -224 630
-268 708 -52 92 -177 223 -268 282 -207 133 -461 205 -807 230 -128 9 -220 5
-890 -36 -844 -52 -956 -53 -1128 -10 -220 56 -391 172 -455 309 -77 163 -41
310 141 583 119 178 267 311 485 436 308 177 606 258 943 258 277 0 465 -43
645 -146 l62 -36 74 -200 c101 -273 123 -303 229 -303 46 0 66 5 97 26 21 15
116 52 209 83 l170 56 413 413 c232 233 412 420 412 430 0 35 -29 73 -124 165
-80 78 -100 92 -128 92 -29 0 -70 -37 -440 -407 l-408 -408 -31 -93 c-17 -51
-33 -92 -34 -90 -2 2 -85 221 -184 487 -100 266 -189 497 -198 514 -38 63
-140 86 -215 47z m1712 -295 c0 -12 -24 -44 -55 -75 l-55 -54 -30 29 -30 29 0
130 0 131 85 -85 c52 -51 85 -93 85 -105z m-338 28 c18 -16 7 -29 -284 -320
-167 -167 -310 -303 -318 -303 -8 0 -22 5 -30 10 -12 8 48 73 295 320 170 170
312 310 314 310 3 0 13 -8 23 -17z m192 -181 c5 -9 -621 -639 -627 -632 -33
39 -38 33 280 352 256 256 310 305 324 297 10 -5 20 -13 23 -17z m-3443 -2028
c156 -53 325 -84 457 -84 54 0 439 20 857 44 786 45 891 47 1080 16 277 -44
508 -170 601 -326 36 -61 244 -619 260 -699 8 -38 13 -83 12 -99 l-3 -30 -29
45 c-114 173 -316 319 -552 398 -219 74 -374 88 -722 66 -347 -21 -799 -52
-1013 -70 -233 -19 -309 -11 -519 57 -232 75 -402 198 -503 365 -27 45 -167
393 -167 416 0 3 25 -8 55 -25 30 -16 114 -50 186 -74z"/>
<path d="M1660 6843 c0 -25 0 -26 20 -8 11 10 20 19 20 20 0 2 -9 5 -20 8 -16
4 -20 0 -20 -20z"/>
<path d="M1165 6680 c-33 -13 -101 -93 -84 -98 8 -3 26 -13 41 -23 14 -11 38
-19 52 -19 19 0 26 -5 26 -19 0 -11 18 -40 39 -65 l40 -46 45 52 c36 42 46 60
46 89 0 61 -45 83 -111 55 -13 -6 -16 -2 -12 17 3 17 -2 32 -16 46 -22 22 -34
24 -66 11z m32 -45 c26 -18 35 -51 18 -65 -9 -7 -24 -2 -54 20 -22 17 -41 34
-41 38 0 26 45 30 77 7z m96 -57 c46 -24 60 -67 33 -104 -14 -18 -16 -17 -60
26 -51 49 -52 52 -30 74 18 19 28 20 57 4z"/>
<path d="M816 6261 c-4 -7 -6 -13 -5 -15 2 -1 41 -26 87 -56 46 -29 87 -61 92
-71 24 -45 -2 -99 -47 -99 -20 0 -135 72 -179 112 -21 19 -21 19 -38 -7 -10
-15 -16 -28 -14 -29 81 -55 185 -116 199 -116 80 0 133 96 83 151 -10 12 -51
43 -91 70 -39 27 -73 54 -75 61 -3 9 -6 9 -12 -1z"/>
<path d="M488 5713 c-60 -70 -46 -153 27 -153 15 0 60 18 100 40 71 39 72 39
89 21 31 -35 0 -82 -70 -106 l-38 -13 31 -16 c31 -15 32 -15 56 14 54 64 55
140 3 160 -32 12 -60 4 -128 -37 -64 -40 -92 -40 -96 -2 -4 31 46 79 81 79 22
1 22 1 3 15 -26 20 -40 19 -58 -2z"/>
</g>
</svg>
